Coordinates
version=1
nRows=20
nColumns=38
inDegrees=no

Units are S.I. units (second, meters, Newtons, ...)
If the header above contains a line with 'inDegrees', this indicates whether rotational values are in degrees (yes) or radians (no).

endheader
time	pelvis_tilt	pelvis_list	pelvis_rotation	pelvis_tx	pelvis_ty	pelvis_tz	hip_flexion_r	hip_adduction_r	hip_rotation_r	knee_angle_r	ankle_angle_r	subtalar_angle_r	mtp_angle_r	hip_flexion_l	hip_adduction_l	hip_rotation_l	knee_angle_l	ankle_angle_l	subtalar_angle_l	mtp_angle_l	lumbar_extension	lumbar_bending	lumbar_rotation	arm_flex_r	arm_add_r	arm_rot_r	elbow_flex_r	pro_sup_r	wrist_flex_r	wrist_dev_r	arm_flex_l	arm_add_l	arm_rot_l	elbow_flex_l	pro_sup_l	wrist_flex_l	wrist_dev_l
20	2.98476	1.41409	-1.26245	0.655174	-0.237966	0.950515	-0.174515	0.0178845	-0.0544597	0.190401	-0.253895	0	0	-0.118829	-0.118224	-0.0406625	0.257858	-0.229486	0	0	-0.445375	0.0141563	0.0969949	0.180494	-0.725826	-0.154812	1.82163	1.5708	0	0	0.490557	-0.207477	0.408029	1.6731	1.5708	0	0
20.01	2.98957	1.41295	-1.26898	0.655132	-0.236748	0.950577	-0.177496	0.0173819	-0.0522746	0.189362	-0.254118	0	0	-0.122986	-0.117478	-0.0405375	0.256011	-0.229025	0	0	-0.443117	0.0157668	0.0940784	0.185973	-0.724562	-0.1434	1.8204	1.5708	0	0	0.486662	-0.212385	0.40679	1.67022	1.5708	0	0
20.02	2.99374	1.41171	-1.27514	0.655075	-0.235458	0.950626	-0.180643	0.0168706	-0.0498378	0.188315	-0.254043	0	0	-0.127229	-0.116946	-0.0416086	0.254575	-0.228301	0	0	-0.439933	0.016393	0.0933532	0.187933	-0.722197	-0.136219	1.8185	1.5708	0	0	0.483214	-0.21599	0.406285	1.66627	1.5708	0	0
20.03	2.92076	1.436	-1.2098	0.654791	-0.233494	0.949451	-0.150207	0.0174577	-0.033341	0.196299	-0.25197	0	0	-0.101335	-0.117576	-0.0434609	0.256432	-0.226704	0	0	-0.406547	0.0187347	0.094294	0.186244	-0.719951	-0.12304	1.81321	1.5708	0	0	0.483001	-0.280084	0.391988	1.74885	1.5708	0	0
20.04	2.91642	1.43702	-1.20749	0.654689	-0.232339	0.949394	-0.14942	0.0173732	-0.0295262	0.198333	-0.248897	0	0	-0.101911	-0.117561	-0.0450101	0.256573	-0.225691	0	0	-0.401435	0.0199478	0.0935284	0.187884	-0.718124	-0.115992	1.81149	1.5708	0	0	0.477365	-0.28411	0.390164	1.7483	1.5708	0	0
20.05	2.914	1.43653	-1.2066	0.654534	-0.231242	0.949456	-0.150719	0.0176606	-0.0265567	0.199248	-0.247571	0	0	-0.104036	-0.117937	-0.0468827	0.256691	-0.224868	0	0	-0.398087	0.021647	0.093051	0.188814	-0.716498	-0.110458	1.8101	1.5708	0	0	0.473442	-0.287909	0.389798	1.74734	1.5708	0	0
20.06	2.91228	1.43539	-1.20622	0.654347	-0.230153	0.949575	-0.153081	0.0181486	-0.0234229	0.199208	-0.247264	0	0	-0.106969	-0.118513	-0.0491418	0.256589	-0.224261	0	0	-0.39551	0.0235461	0.092843	0.188969	-0.714856	-0.106171	1.80913	1.5708	0	0	0.470081	-0.291093	0.389719	1.74604	1.5708	0	0
20.07	2.91213	1.43415	-1.20692	0.654094	-0.229047	0.949699	-0.156056	0.0185467	-0.0204941	0.198261	-0.246803	0	0	-0.110145	-0.118931	-0.0513035	0.256238	-0.223583	0	0	-0.393203	0.0253737	0.0925235	0.1882	-0.71306	-0.103213	1.80859	1.5708	0	0	0.466612	-0.29335	0.389039	1.74462	1.5708	0	0
20.08	2.91478	1.43227	-1.20959	0.653752	-0.228031	0.949885	-0.159919	0.0187664	-0.0198075	0.196719	-0.247008	0	0	-0.113935	-0.119156	-0.0524217	0.255675	-0.223029	0	0	-0.392039	0.0270943	0.0917516	0.18707	-0.711446	-0.101292	1.80844	1.5708	0	0	0.46367	-0.295111	0.388273	1.74325	1.5708	0	0
20.09	2.91745	1.43025	-1.21232	0.653412	-0.22707	0.950047	-0.163775	0.0190372	-0.0190589	0.195372	-0.247426	0	0	-0.117885	-0.119432	-0.0539539	0.255024	-0.222652	0	0	-0.391143	0.0287604	0.0911935	0.186037	-0.710087	-0.0996308	1.80829	1.5708	0	0	0.461201	-0.296747	0.387847	1.74191	1.5708	0	0
20.1	2.92067	1.42784	-1.21528	0.652999	-0.226182	0.950197	-0.168	0.0193497	-0.0185301	0.193869	-0.247951	0	0	-0.122163	-0.119721	-0.0552935	0.254289	-0.222207	0	0	-0.390714	0.0305988	0.0904365	0.185248	-0.709035	-0.0980912	1.80799	1.5708	0	0	0.459309	-0.298233	0.387795	1.74061	1.5708	0	0
20.11	2.97442	1.42238	-1.26375	0.651524	-0.224839	0.950114	-0.179937	0.0118877	-0.0344271	0.190536	-0.246665	0	0	-0.132589	-0.112418	-0.052762	0.252178	-0.221037	0	0	-0.393976	0.0281271	0.0838447	0.18285	-0.708896	-0.0981208	1.80849	1.5708	0	0	0.458254	-0.299762	0.389289	1.73995	1.5708	0	0
20.12	2.96922	1.42239	-1.26031	0.651649	-0.224308	0.950063	-0.179493	0.0127671	-0.0283281	0.192339	-0.245946	0	0	-0.13352	-0.113377	-0.0544703	0.252111	-0.2203	0	0	-0.391916	0.0288868	0.0853157	0.18212	-0.707347	-0.0974506	1.80822	1.5708	0	0	0.457341	-0.301301	0.389904	1.73896	1.5708	0	0
20.13	2.96296	1.42287	-1.25487	0.651489	-0.223685	0.950036	-0.178851	0.0133445	-0.0246107	0.194092	-0.245269	0	0	-0.133829	-0.11417	-0.0562646	0.252138	-0.21937	0	0	-0.38904	0.0304714	0.0861449	0.180519	-0.705976	-0.097499	1.80813	1.5708	0	0	0.455865	-0.301909	0.390444	1.73729	1.5708	0	0
20.14	2.95545	1.42351	-1.24776	0.651302	-0.223063	0.949997	-0.178078	0.0141973	-0.0216034	0.19541	-0.244271	0	0	-0.133789	-0.115166	-0.0578499	0.252133	-0.218559	0	0	-0.385953	0.032227	0.0864228	0.179196	-0.704168	-0.0976106	1.80777	1.5708	0	0	0.454268	-0.302453	0.390579	1.73558	1.5708	0	0
20.15	2.94869	1.42354	-1.24115	0.651091	-0.222479	0.950019	-0.177998	0.0152462	-0.0192462	0.196215	-0.243306	0	0	-0.13435	-0.116287	-0.059395	0.252058	-0.218032	0	0	-0.383696	0.0340774	0.0862184	0.178439	-0.702353	-0.0973476	1.80731	1.5708	0	0	0.452755	-0.302992	0.390329	1.73403	1.5708	0	0
20.16	2.94313	1.42282	-1.23556	0.650891	-0.22192	0.950112	-0.178984	0.0165862	-0.0171663	0.196077	-0.242391	0	0	-0.135761	-0.117586	-0.0612217	0.251871	-0.2176	0	0	-0.382388	0.0359192	0.0856583	0.178208	-0.700446	-0.0967201	1.80673	1.5708	0	0	0.451416	-0.303501	0.38973	1.7327	1.5708	0	0
20.17	2.93966	1.42129	-1.2314	0.65066	-0.221339	0.950277	-0.181532	0.0180869	-0.0159039	0.194782	-0.242088	0	0	-0.13804	-0.119032	-0.0632513	0.251713	-0.217288	0	0	-0.381925	0.0377407	0.0844051	0.17814	-0.698404	-0.0960318	1.80586	1.5708	0	0	0.45011	-0.303953	0.389004	1.73155	1.5708	0	0
20.18	2.93837	1.41884	-1.2288	0.650382	-0.220796	0.950512	-0.185576	0.0197078	-0.0149671	0.192689	-0.242427	0	0	-0.141201	-0.12059	-0.0651163	0.251695	-0.216972	0	0	-0.38252	0.0395758	0.0826402	0.178307	-0.696517	-0.0952463	1.80492	1.5708	0	0	0.449086	-0.304319	0.388287	1.7305	1.5708	0	0
20.19	2.93876	1.41537	-1.22749	0.650043	-0.220303	0.950809	-0.191064	0.0214123	-0.0144409	0.189956	-0.243283	0	0	-0.14542	-0.122235	-0.0665704	0.251424	-0.216912	0	0	-0.384301	0.0415705	0.0807066	0.178441	-0.695126	-0.094519	1.80425	1.5708	0	0	0.448497	-0.304544	0.38773	1.72932	1.5708	0	0
